<svg xmlns="http://www.w3.org/2000/svg" viewBox="0 0 219.38 49.57"><defs><style>.cls-1{fill:#1a1a1a;}.cls-2{fill:#6b5eae;}</style></defs><title>logo</title><g id="Layer_2" data-name="Layer 2"><g id="Layer_1-2" data-name="Layer 1"><polygon class="cls-1" points="12.6 19.25 12.6 0 0 0 0 49.51 12.6 49.51 12.6 29.87 32.48 29.87 32.48 49.51 45.07 49.51 45.07 19.26 12.6 19.25"/><path class="cls-1" d="M70.08,49.45c-26.61.14-25.86-39.28.18-39.21,27-.29,26.05,39.42-.18,39.21m.16-29.94C60,19,60.05,40.42,70.05,40.1c10.65.9,10.49-21.16.19-20.59"/><path class="cls-1" d="M114.26,49.51c-26.62.14-25.87-39.28.18-39.21,27-.3,26,39.42-.18,39.21m.16-29.94c-10.23-.54-10.19,20.9-.2,20.59,10.65.9,10.49-21.16.2-20.59"/><path class="cls-1" d="M140.05,3.17h11.8L151.77,12H161l-.24,9.59H150.9c0,13.13-3.38,20.89,9.27,17.11l1.42,9.5c-10.72,3-23.49,2.1-22.49-12Z"/><path class="cls-1" d="M183.58,49.51c-5.07,0-11.72-1.19-15.6-3.25l2.37-8.79c9.45,5,21.62,4.58,17.73-1.26-9.43-4.55-17.85-2.54-19.48-12.74-1.1-15.61,20.76-14.91,31.14-10l-2.45,8.71c-17-7.57-19.7-.29-15.43,1.74,3,1.33,8.35,1.94,11.06,3.27,13.13,5.25,8.38,22.9-9.34,22.32"/><rect class="cls-1" x="207.14" y="19.26" width="12.2" height="30.25"/><rect class="cls-2" x="207" width="12.38" height="12.38"/><rect class="cls-2" x="32.48" width="12.6" height="12.38"/></g></g></svg>
